Coordinates
version=1
nRows=24
nColumns=38
inDegrees=no

Units are S.I. units (second, meters, Newtons, ...)
If the header above contains a line with 'inDegrees', this indicates whether rotational values are in degrees (yes) or radians (no).

endheader
time	pelvis_tilt	pelvis_list	pelvis_rotation	pelvis_tx	pelvis_ty	pelvis_tz	hip_flexion_r	hip_adduction_r	hip_rotation_r	knee_angle_r	ankle_angle_r	subtalar_angle_r	mtp_angle_r	hip_flexion_l	hip_adduction_l	hip_rotation_l	knee_angle_l	ankle_angle_l	subtalar_angle_l	mtp_angle_l	lumbar_extension	lumbar_bending	lumbar_rotation	arm_flex_r	arm_add_r	arm_rot_r	elbow_flex_r	pro_sup_r	wrist_flex_r	wrist_dev_r	arm_flex_l	arm_add_l	arm_rot_l	elbow_flex_l	pro_sup_l	wrist_flex_l	wrist_dev_l
0	2.90965	1.41303	-1.18224	0.644044	0.697302	0.944822	-0.253298	-0.0825578	-0.363409	0.243837	-0.271356	0	0	-0.327102	-0.155861	-0.318191	0	-0.504634	0	0	-0.237154	0.100608	-0.184307	0.279182	-0.353019	0.936413	0.602398	1.02697	0	0	0.0924209	-0.188558	0.513627	0.566014	1.5708	0	0
0.01	2.71537	1.44696	-0.985079	0.643829	0.698417	0.938991	-0.243744	-0.0705658	-0.280014	0.15788	-0.288686	0	0	-0.272865	-0.176506	-0.309753	0.0410122	-0.440353	0	0	-0.180016	0.111401	-0.19159	0.272831	-0.354327	0.941705	0.598032	1.02785	0	0	0.0854924	-0.181298	0.510913	0.553035	1.5708	0	0
0.02	2.71777	1.4472	-0.987025	0.643889	0.698409	0.938972	-0.240787	-0.0697508	-0.288508	0.167543	-0.28332	0	0	-0.273508	-0.175298	-0.308043	0.0356612	-0.44518	0	0	-0.179416	0.111212	-0.191897	0.272888	-0.35473	0.940475	0.597412	1.02917	0	0	0.0853626	-0.182028	0.508342	0.554525	1.5708	0	0
0.03	2.7214	1.44714	-0.990143	0.643917	0.698379	0.939012	-0.240167	-0.0695235	-0.292893	0.170304	-0.281783	0	0	-0.274415	-0.174079	-0.306307	0.030636	-0.449751	0	0	-0.179332	0.111073	-0.192144	0.273272	-0.35537	0.94013	0.596754	1.03113	0	0	0.0854022	-0.18274	0.505631	0.556051	1.5708	0	0
0.04	2.72461	1.44737	-0.992857	0.643929	0.698361	0.939026	-0.239628	-0.0697049	-0.296198	0.171985	-0.280731	0	0	-0.275002	-0.172712	-0.304557	0.0259274	-0.454025	0	0	-0.178958	0.110839	-0.192455	0.273388	-0.355936	0.938898	0.596374	1.03197	0	0	0.0853586	-0.183506	0.502725	0.557688	1.5708	0	0
0.05	2.72745	1.44793	-0.995284	0.643951	0.698351	0.939016	-0.238589	-0.070072	-0.29954	0.173833	-0.27972	0	0	-0.275206	-0.171202	-0.302761	0.0215474	-0.457966	0	0	-0.178292	0.110438	-0.192809	0.273313	-0.356326	0.936929	0.596171	1.03207	0	0	0.0852404	-0.184373	0.499672	0.55949	1.5708	0	0
0.06	2.73048	1.44879	-0.997946	0.643987	0.698333	0.938973	-0.237277	-0.0706645	-0.302807	0.175699	-0.278904	0	0	-0.275142	-0.169512	-0.300912	0.0173962	-0.461616	0	0	-0.177455	0.109787	-0.193125	0.273043	-0.356608	0.934737	0.596062	1.03205	0	0	0.0850256	-0.185333	0.496351	0.561498	1.5708	0	0
0.07	2.73435	1.4496	-1.00148	0.644017	0.698296	0.938911	-0.236194	-0.0712435	-0.305845	0.177052	-0.27876	0	0	-0.275128	-0.167761	-0.299058	0.0135604	-0.464969	0	0	-0.176747	0.109108	-0.193544	0.272726	-0.356886	0.932266	0.596153	1.03212	0	0	0.0847571	-0.186201	0.492454	0.563463	1.5708	0	0
0.08	2.73445	1.44837	-1.0007	0.644019	0.698232	0.939098	-0.237175	-0.0696833	-0.30889	0.177048	-0.279468	0	0	-0.276549	-0.167855	-0.297329	0.0101394	-0.468119	0	0	-0.17793	0.110103	-0.194215	0.27311	-0.35743	0.930373	0.596148	1.03305	0	0	0.0850713	-0.186718	0.488355	0.564784	1.5708	0	0
0.09	2.73352	1.44763	-0.999085	0.644037	0.69816	0.939246	-0.237455	-0.068361	-0.311644	0.177268	-0.279919	0	0	-0.277336	-0.16778	-0.295754	0.00719703	-0.470905	0	0	-0.178673	0.110919	-0.194636	0.273328	-0.358053	0.928467	0.596296	1.03339	0	0	0.0856103	-0.187013	0.484289	0.565584	1.5708	0	0
0.1	2.73341	1.4471	-0.998586	0.644104	0.698062	0.939387	-0.23735	-0.0672813	-0.313992	0.177897	-0.280137	0	0	-0.277976	-0.167444	-0.294318	0.00456099	-0.473345	0	0	-0.179429	0.111459	-0.194758	0.273412	-0.358547	0.926205	0.59652	1.03296	0	0	0.0863423	-0.187444	0.480705	0.5663	1.5708	0	0
0.11	2.73314	1.44674	-0.997877	0.644153	0.697973	0.939507	-0.237152	-0.0662197	-0.316566	0.178619	-0.280291	0	0	-0.278389	-0.16705	-0.292857	0.0022369	-0.475392	0	0	-0.179997	0.111947	-0.195049	0.273213	-0.3588	0.922784	0.596804	1.03135	0	0	0.0869705	-0.187898	0.477149	0.567015	1.5708	0	0
0.12	2.73199	1.44654	-0.996111	0.644167	0.697888	0.939598	-0.236708	-0.0652695	-0.319358	0.179205	-0.280642	0	0	-0.278394	-0.166727	-0.291391	0.000390563	-0.476964	0	0	-0.18033	0.112474	-0.195615	0.272832	-0.358799	0.919058	0.596889	1.02966	0	0	0.0875091	-0.188281	0.473603	0.567595	1.5708	0	0
0.13	2.73224	1.44637	-0.995633	0.644162	0.697768	0.93968	-0.236251	-0.064586	-0.322272	0.179865	-0.280913	0	0	-0.278072	-0.166337	-0.290305	0	-0.478103	0	0	-0.180743	0.112863	-0.196399	0.273046	-0.358778	0.916298	0.596608	1.02933	0	0	0.088243	-0.188704	0.47051	0.56794	1.5708	0	0
0.14	2.73339	1.44632	-0.996071	0.644153	0.697642	0.939737	-0.235673	-0.0642408	-0.325067	0.180697	-0.281215	0	0	-0.277589	-0.165807	-0.28934	0	-0.478961	0	0	-0.181095	0.113041	-0.197139	0.273749	-0.358952	0.915131	0.596023	1.03025	0	0	0.0891356	-0.189157	0.467902	0.568079	1.5708	0	0
0.15	2.73379	1.44652	-0.99641	0.644246	0.697597	0.93977	-0.234885	-0.0639455	-0.32688	0.181233	-0.28162	0	0	-0.277158	-0.165204	-0.289133	0	-0.479735	0	0	-0.181097	0.112957	-0.197216	0.274125	-0.358933	0.914104	0.595268	1.03064	0	0	0.0898926	-0.18961	0.465405	0.568085	1.5708	0	0
0.16	2.73602	1.44646	-0.998486	0.644328	0.697547	0.939826	-0.234554	-0.0636777	-0.328767	0.181557	-0.28212	0	0	-0.277044	-0.164559	-0.288811	0	-0.48038	0	0	-0.181522	0.112807	-0.197305	0.274374	-0.358849	0.912822	0.594665	1.03041	0	0	0.0907233	-0.190088	0.463066	0.568158	1.5708	0	0
0.17	2.73905	1.44629	-1.00101	0.644341	0.697498	0.939874	-0.234535	-0.0634881	-0.331168	0.181738	-0.282739	0	0	-0.276988	-0.163931	-0.288172	0	-0.480846	0	0	-0.18202	0.112696	-0.197749	0.27439	-0.358713	0.911108	0.594267	1.02976	0	0	0.0915894	-0.190528	0.461154	0.56813	1.5708	0	0
0.18	2.74255	1.44615	-1.004	0.644348	0.697449	0.939896	-0.234521	-0.0634865	-0.333545	0.181869	-0.283344	0	0	-0.276949	-0.163264	-0.287465	0	-0.481147	0	0	-0.18253	0.112488	-0.1982	0.274136	-0.358481	0.908946	0.59409	1.02894	0	0	0.0924638	-0.191122	0.459877	0.568166	1.5708	0	0
0.19	2.74653	1.4461	-1.00764	0.644376	0.697408	0.939899	-0.234457	-0.0636444	-0.335667	0.181904	-0.283891	0	0	-0.276897	-0.162481	-0.286773	0	-0.481341	0	0	-0.182979	0.112122	-0.198549	0.274038	-0.358281	0.907236	0.593891	1.02938	0	0	0.0932917	-0.19191	0.459081	0.56826	1.5708	0	0
0.2	2.75085	1.44602	-1.01176	0.644426	0.697385	0.939912	-0.234687	-0.0636505	-0.337634	0.181779	-0.284417	0	0	-0.277018	-0.161785	-0.286224	0	-0.481493	0	0	-0.183466	0.111721	-0.198707	0.273874	-0.358186	0.90556	0.593936	1.03049	0	0	0.0941735	-0.192511	0.458088	0.568379	1.5708	0	0
0.21	2.74834	1.44497	-1.00925	0.644508	0.697287	0.940082	-0.23533	-0.0620711	-0.337927	0.180989	-0.285352	0	0	-0.277548	-0.162428	-0.285821	0	-0.481602	0	0	-0.184759	0.112789	-0.198132	0.273694	-0.358362	0.903263	0.594245	1.03136	0	0	0.0959592	-0.19242	0.457605	0.567213	1.5708	0	0
0.22	2.74507	1.44423	-1.00612	0.644598	0.69718	0.94021	-0.235321	-0.0608112	-0.337993	0.180898	-0.285715	0	0	-0.277708	-0.162914	-0.285498	0	-0.481444	0	0	-0.185616	0.113715	-0.197164	0.273279	-0.358667	0.901133	0.594708	1.03177	0	0	0.0980542	-0.192596	0.459099	0.565892	1.5708	0	0
0.23	2.74228	1.44379	-1.00351	0.644691	0.697084	0.940295	-0.235035	-0.0598783	-0.338107	0.181059	-0.285587	0	0	-0.277635	-0.163134	-0.28526	0	-0.481155	0	0	-0.186071	0.114351	-0.196237	0.272957	-0.358893	0.899828	0.594974	1.0321	0	0	0.10013	-0.193156	0.462025	0.564783	1.5708	0	0
